<svg id="Layer_1" data-name="Layer 1" xmlns="http://www.w3.org/2000/svg" xmlns:xlink="http://www.w3.org/1999/xlink" viewBox="0 0 1920 956"><defs><style>.cls-1{fill:none;}.cls-2{clip-path:url(#clip-path);}.cls-3{fill:#d0d4d6;}</style><clipPath id="clip-path"><rect class="cls-1" width="1920" height="956"/></clipPath></defs><title>Artboard 1</title><g class="cls-2"><path class="cls-3" d="M1945.72-76.37c-211.11-159.51-594.79-158.86-833.83,30.62-14.4,7.48-59.09,32.7-75.69,78.87-15,41.58-1.33,84.07,24.42,113.21,63.94,72.38,181,37.83,228.29,92.79,55.52,64.47-80.62,140.92-51.27,249.6,27.68,102.54,191.1,191,352.81,193.94,203.1,3.66,327.86-129,366.25-169.81C2093.37,367.54,2171.48,94.22,1945.72-76.37Z"/><path class="cls-3" d="M1936.93,938.38c-.61,9.19-5,18.25-6.58,21.45-49.77,102.26-1828.92,302.64-2099.43,4A172.37,172.37,0,0,1-190.75,934"/><path class="cls-3" d="M-195.75,938.63c-52.77-140.56-19.91-340.79,48-357.51,19.05-4.7,40.44,5.17,95.86,46.87,177.78,133.76,177,197.25,266.51,250.27C370.91,970.87,616.55,921.39,663.38,911c111.28-24.72,198.77-72.85,299.16-38,41.09,14.25,46.13,29.14,96.92,45.1,70.09,22,123.11,13.35,227.53,3.54,181.76-17.09,272.64-25.63,330.77-15,81.79,14.91,118.93,40.06,190.66,26.53,51.71-9.75,90.38-33.75,111.66-19.45,10,6.69,12.39,19.27,11.85,31.7"/></g></svg>